<svg xmlns="http://www.w3.org/2000/svg" viewBox="0 0 13139.56 15473.51"><title>scrAPD-logo</title><path d="M6963.31-4385.82,4067.48-7340.76S3338.6-6277,2471.82-6198.18,1023.9-6947.26,1023.9-6947.26h-14.19S428.58-6119.38-438.2-6198.18c-693.28-63-1298.34-756.17-1512.79-1031.14-45.15-57.89-130.74-62.6-182.12-10.17L-4843.47-4473.81a120.41,120.41,0,0,0,2,170.84C-4573-4042.4-3774.82-3202.34-3619.68-2287.82c354.59,2186.65-916,3708.2-916,4964.29,0,1544.89,847.14,3092.23,2350.89,3655.78,1145.13,429.15,2502.14,676.67,3194.53,1800.51h14.19C1716.29,7008.92,3073.31,6761.4,4218.43,6332.25,5722.18,5768.7,6569.32,4221.36,6569.32,2676.47c0-1256.09-1270.62-2777.64-916-4964.29C5840.44-3391,6963.31-4385.82,6963.31-4385.82Z" transform="translate(6173.78 7340.76)" fill="#042ba8"/><polygon points="13139.56 2954.93 10248.36 2822.33 10243.72 0 13139.56 2954.93" fill="#3d74fc"/><path d="M4609.54-462q-88.86-176.76-88.86-584.33,0-426.9-17.27-500.31-21.19-98.51-81.72-141c-31.21-21.88-84.7-35.22-159.93-40.2H-5616.47c-75.23,5-128.72,18.32-159.93,40.2q-60.56,42.51-81.72,141-17.29,73.42-17.27,500.31,0,407.58-88.87,584.33-66.42,132.11-209.52,225.89v115q96.45,61.72,160.26,148.82,95.63,131.4,122.64,365.1,15.48,125.59,15.49,587.2,0,249.24,64.4,322.61c41.9,47.77,127.86,72.08,257.18,73.19H4199.1c129.32-1.11,215.28-25.42,257.18-73.19q64.4-73.44,64.4-322.61,0-461.59,15.49-587.2,27-233.72,122.64-365.1,63.55-87.31,160.26-148.82v-115Q4676-329.88,4609.54-462Z" transform="translate(6173.78 7340.76)" fill="#3d74fc"/><path d="M-271.09-1120.6h377L856.84,832H470.59L317.8,429.8H-479L-637.82,832h-386.26ZM-80.31-602.9l-262,670.34H180.11Z" transform="translate(6173.78 7340.76)" fill="#f0f5fc"/><path d="M1142.91-1120.6h394.24q319.85,0,461.29,59.08t223,191.15q81.61,132.07,81.61,316.58,0,204.42-106.85,339.82t-290,188.49Q1798.65,5.07,1514.57,5.05V832H1142.91Zm371.66,763.27h118.16q139.37,0,193.8-20t85.61-65.93q31.15-45.94,31.2-111.2,0-113.22-87.61-165.17-63.72-38.58-236.28-38.61H1514.57Z" transform="translate(6173.78 7340.76)" fill="#f0f5fc"/><path d="M2668.11-1120.6h440.31q425.76,0,632.62,105.52T4081.9-671.93q133.95,237.63,134,554.86,0,225.69-74.95,414.82T3934,611.7q-131.94,124.77-285.8,172.52T3115.08,832h-447Zm369,358.41V469.64h172.56q254.86,0,369.68-58.46T3767.2,214.51q73-138.19,73-340.18,0-310.93-173.87-482.37-156.63-154.12-503.11-154.15Z" transform="translate(6173.78 7340.76)" fill="#f0f5fc"/><path d="M-4285.45-607.43l-195.92,314q-75.6-112.32-158.92-165.45T-4796.1-512q-55.56,0-94.09,30.78T-4928.77-412q0,36.95,30.86,73.87,29.3,36.94,177.45,143.13,236.09,169.34,310.92,290.11t74.84,262.4q0,186.29-153.13,352.42t-444,166.22q-167.77,0-305.5-67.72t-307-247.78l253.94-295.48Q-5118.11,493-4913.38,493q81.55,0,130.05-39.25t48.48-93.09q0-43-36.94-88.49T-4973.4,109.76q-190.86-135.39-263.17-232.39Q-5338.15-258-5338.15-408.89q0-210.83,159.29-343.2t376.29-132.36q152.37,0,289.34,72.33T-4285.45-607.43Z" transform="translate(6173.78 7340.76)" fill="#f0f5fc"/><path d="M-2287-495.27l-347.63,189.21q-147.69-187.45-396.84-187.48-167.66,0-296.86,71.47t-206.1,206.67q-76.92,135.23-76.91,285.82,0,193.63,121.51,310.4t333.77,116.76q293.77,0,450.67-198.21l323,228.26q-137.07,163.5-341,256t-455,92.5q-391.1,0-616.69-215.47T-4020.74,91.29q0-404.74,278.68-690.25t717.49-285.49Q-2530.3-884.45-2287-495.27Z" transform="translate(6173.78 7340.76)" fill="#f0f5fc"/><path d="M-1892.82-841.36h366.21l-29.24,227.78q164.71-270.85,395.53-270.87,55.39,0,115.43,29.45l-150.29,373.68q-46.86-16.83-68.72-16.83-120.15,0-214.62,139.28t-149,562.51l-81.18,629.45h-412.83Z" transform="translate(6173.78 7340.76)" fill="#f0f5fc"/></svg>